<?xml version="1.0" standalone="no"?>
<!DOCTYPE svg PUBLIC "-//W3C//DTD SVG 20010904//EN"
 "http://www.w3.org/TR/2001/REC-SVG-20010904/DTD/svg10.dtd">
<svg version="1.0" xmlns="http://www.w3.org/2000/svg"
 width="1920pt" height="1920pt" viewBox="0 0 7680.000000 7680.000000"
 preserveAspectRatio="xMidYMid meet">

<g transform="translate(0.000000,7680.000000) scale(0.100000,-0.100000)"
fill="#d42222" stroke="#ffffff" stroke-width="250">
<path d="M35915 71415 l-2370 -123 -2640 -416 -2640 -416 -2631 -609 -2631
-609 -2627 -900 c-1446 -496 -2630 -903 -2632 -905 -2 -2 192 -856 432 -1898
287 -1246 442 -1900 453 -1911 26 -27 19755 -12482 19771 -12482 16 0 19743
12454 19772 12482 9 10 24 49 32 87 14 65 23 105 61 270 9 36 22 94 30 130 9
36 22 94 30 130 9 36 22 94 30 130 9 36 22 94 30 130 9 36 22 95 31 132 8 38
22 95 29 128 18 76 40 171 60 260 21 89 43 184 60 260 8 33 21 89 29 125 9 36
22 94 30 130 9 36 23 97 31 135 9 39 23 99 31 135 9 36 22 94 30 130 9 36 22
92 29 125 18 76 40 171 60 260 9 39 23 99 31 135 9 36 22 94 30 130 9 36 22
92 29 125 18 76 40 171 60 260 21 89 43 184 60 260 29 124 45 199 42 201 -2 2
-1186 408 -2632 904 l-2630 901 -2635 610 -2635 610 -2635 415 -2635 415
-2415 124 c-1328 69 -2446 124 -2485 124 -38 -1 -1136 -57 -2440 -124z m3404
-5120 c844 -52 953 -61 1881 -155 542 -55 1444 -154 2005 -221 l1020 -121
1695 -424 c932 -234 1703 -428 1713 -432 14 -6 -1077 -743 -4600 -3112 -2540
-1707 -4625 -3104 -4633 -3104 -13 0 -189 116 -1055 699 -132 89 -400 269
-595 400 -195 131 -470 316 -610 410 -140 94 -415 279 -610 410 -195 131 -456
307 -580 390 -124 83 -385 259 -580 390 -195 131 -470 316 -610 410 -140 94
-400 269 -577 388 -751 505 -982 660 -1238 832 -354 238 -733 493 -1200 807
-858 577 -1112 747 -1347 905 -137 92 -247 168 -245 169 2 2 775 197 1718 433
l1714 430 1010 120 c556 66 1458 165 2005 221 920 93 1059 104 1850 154 470
30 881 54 914 55 32 0 462 -24 955 -54z"/>
<path d="M3642 67308 c3 -7 949 -4354 2103 -9660 l2099 -9648 5649 -3525 5650
-3525 6283 0 6284 0 -5 23 c-3 12 -568 2895 -1255 6406 -687 3511 -1251 6385
-1252 6386 -2 1 -3353 2087 -7448 4635 -4095 2548 -7451 4638 -7457 4644 -9 8
-29 544 -79 2131 -36 1166 -68 2126 -70 2133 -3 9 -1062 12 -5255 12 -4197 0
-5250 -3 -5247 -12z m15362 -10461 c3909 -1719 7110 -3127 7112 -3129 6 -7
378 -3048 373 -3053 -7 -6 -14050 5723 -14065 5738 -6 7 -136 806 -288 1777
-153 971 -280 1773 -283 1784 -4 15 -1 18 18 14 13 -3 3223 -1412 7133 -3131z
m978 -6958 c3840 -1502 6989 -2734 6998 -2739 12 -6 108 -513 409 -2164 217
-1186 391 -2159 388 -2162 -3 -3 -3206 1468 -7118 3269 l-7113 3274 -277 1599
c-153 879 -280 1611 -283 1627 -3 15 -1 27 5 27 5 0 3151 -1229 6991 -2731z"/>
<path d="M62656 67308 c-2 -7 -33 -967 -70 -2133 -50 -1613 -69 -2122 -78
-2131 -7 -6 -3363 -2096 -7458 -4644 -4095 -2548 -7446 -4634 -7448 -4636 -2
-1 -566 -2875 -1253 -6386 -687 -3510 -1251 -6393 -1254 -6405 l-5 -23 6283 0
6284 0 5649 3525 c4875 3042 5650 3529 5656 3552 4 16 18 80 32 143 31 145 67
313 100 460 44 201 87 402 107 495 10 50 23 108 28 130 6 22 21 92 35 155 13
63 36 167 50 230 13 63 36 167 50 230 13 63 36 167 50 230 13 63 36 168 50
233 14 64 37 169 51 232 14 63 36 167 50 230 14 63 36 167 50 230 14 63 36
167 50 230 14 63 36 166 49 228 46 207 88 401 107 492 10 50 23 108 28 130 6
22 21 92 35 155 13 63 36 169 51 235 14 66 37 170 50 230 13 61 35 162 49 225
13 63 36 167 50 230 13 63 36 167 50 230 13 63 36 167 50 230 13 63 36 167 50
230 13 63 36 167 50 230 13 63 36 167 50 230 44 201 87 402 107 495 10 50 23
108 28 130 6 22 21 92 35 155 26 122 58 268 101 465 14 66 37 170 50 230 13
61 35 164 50 230 14 66 37 170 50 230 26 121 60 277 99 458 14 64 37 169 51
232 14 63 36 166 49 228 14 61 39 175 56 252 16 77 32 149 34 160 3 11 16 73
30 138 14 64 37 169 51 232 14 63 36 167 50 230 14 63 36 167 50 230 14 63 36
167 50 230 14 63 36 167 50 230 14 63 36 167 50 230 14 63 36 167 50 230 14
63 36 167 50 230 14 63 36 166 50 228 46 212 137 632 156 722 10 50 23 108 28
130 6 22 21 93 35 158 14 64 37 169 51 232 14 63 36 167 50 230 14 63 36 167
50 230 14 63 36 166 49 228 14 61 36 165 50 230 14 64 37 169 51 232 14 63 36
167 50 230 14 63 36 167 50 230 14 63 36 166 49 228 46 207 88 401 107 492 10
50 23 108 28 130 6 22 21 93 35 158 14 64 37 169 51 232 14 63 36 167 50 230
14 63 36 167 50 230 14 63 36 166 49 228 14 61 36 164 50 227 13 63 36 167 50
230 13 63 36 167 50 230 13 63 36 167 50 230 13 63 36 167 50 230 29 132 77
355 112 515 13 61 32 151 43 200 19 85 39 176 96 437 13 62 36 167 50 233 14
66 30 136 35 155 6 19 10 38 10 43 0 4 -2363 7 -5250 7 -4192 0 -5251 -3
-5254 -12z m2288 -7350 c-3 -18 -130 -825 -283 -1793 -276 -1753 -277 -1760
-302 -1772 -72 -35 -14044 -5731 -14048 -5728 -5 6 368 3046 375 3057 3 5 9 8
15 8 9 0 14135 6208 14199 6240 48 25 49 24 44 -12z m-1126 -7350 c-3 -7 -130
-737 -284 -1621 -153 -884 -281 -1611 -284 -1616 -8 -12 -14222 -6553 -14227
-6547 -3 3 31 204 76 448 116 638 303 1662 427 2338 59 322 145 799 193 1060
l86 475 6995 2737 c3847 1505 7001 2737 7009 2737 7 1 11 -5 9 -11z"/>
<path d="M32430 50654 c0 -5 443 -2707 985 -6004 l985 -5996 0 -7312 0 -7312
4000 0 4000 0 0 7310 0 7310 986 6001 c542 3300 983 6003 980 6006 -3 3 -1347
-679 -2986 -1516 l-2980 -1521 -2968 1515 c-1632 832 -2975 1517 -2984 1521
-10 3 -18 2 -18 -2z"/>
<path d="M10740 43368 c-1 -48 1823 -21237 1830 -21254 7 -17 9387 -8193 9411
-8202 5 -2 9 4081 9 9411 l0 9416 -24 18 c-13 10 -1203 758 -2644 1663 l-2621
1645 -1 1765 -1 1765 -2971 1890 c-1634 1040 -2975 1892 -2980 1893 -4 2 -8
-2 -8 -10z"/>
<path d="M63073 41487 l-2972 -1892 -1 -1765 -1 -1765 -2645 -1660 -2644
-1660 0 -9417 c0 -5180 2 -9418 5 -9418 3 0 2123 1844 4712 4098 l4707 4097
913 10605 c501 5833 912 10620 912 10638 1 17 -2 32 -6 31 -5 0 -1345 -852
-2980 -1892z"/>
<path d="M28475 34840 l-3570 -1549 -3 -11082 -2 -11082 1116 -1489 c614 -818
1119 -1488 1123 -1488 3 0 13 15 20 33 8 17 91 187 184 377 93 190 207 422
252 515 45 94 140 287 210 430 70 143 176 359 235 480 59 121 160 328 225 460
65 132 166 339 225 460 59 121 163 333 230 470 118 241 213 435 448 915 60
124 165 338 232 475 118 241 213 435 448 915 60 124 165 338 232 475 67 138
171 349 230 470 59 121 160 328 225 460 65 132 166 339 225 460 59 121 165
337 235 480 70 143 165 337 210 430 45 94 161 330 257 525 96 195 198 406 228
468 l54 112 6656 0 6655 0 2300 -4705 c1265 -2587 2303 -4704 2306 -4705 4 0
509 670 1123 1488 l1116 1489 0 11080 0 11080 -62 28 c-817 356 -7078 3069
-7090 3072 -17 5 -18 -367 -18 -7716 l0 -7721 -6330 0 -6330 0 0 7720 c0 6170
-3 7720 -12 7719 -7 0 -1619 -697 -3583 -1549z"/>
<path d="M32428 11308 l-1786 -3973 3879 -3 c2133 -1 5624 -1 7758 0 l3879 3
-1787 3972 -1786 3973 -4185 0 -4185 0 -1787 -3972z"/>
</g>
</svg>
