<?xml version="1.0" standalone="no"?>
<!DOCTYPE svg PUBLIC "-//W3C//DTD SVG 20010904//EN"
 "http://www.w3.org/TR/2001/REC-SVG-20010904/DTD/svg10.dtd">
<svg version="1.0" xmlns="http://www.w3.org/2000/svg"
 width="872.000000pt" height="915.000000pt" viewBox="0 0 872.000000 915.000000"
 preserveAspectRatio="xMidYMid meet">

<g transform="translate(0.000000,915.000000) scale(0.100000,-0.100000)"
fill="#4b0082" stroke="#8a2be2" stroke-width="50">
<path d="M4 9120 c3 -19 15 -91 26 -160 10 -69 35 -224 54 -345 19 -121 109
-695 200 -1275 92 -580 173 -1098 181 -1150 9 -52 44 -276 79 -497 62 -392 65
-402 97 -450 18 -26 143 -203 278 -393 652 -919 2594 -3659 3067 -4327 278
-392 372 -518 380 -510 7 7 74 100 150 207 179 254 2445 3449 3094 4365 l504
710 33 210 c18 116 44 280 58 365 31 199 104 657 260 1655 69 440 136 870 150
955 14 85 36 229 50 320 15 91 33 205 41 254 8 49 13 90 12 91 -2 1 -68 -97
-148 -219 -79 -121 -292 -446 -472 -720 l-327 -500 -173 -62 c-95 -35 -541
-195 -991 -358 -450 -162 -821 -297 -824 -299 -8 -9 -117 -757 -110 -763 3 -3
405 126 894 288 493 163 889 289 890 284 2 -6 -10 -67 -25 -136 l-28 -125
-320 -117 c-318 -117 -666 -245 -1199 -439 -154 -56 -284 -105 -289 -109 -9
-9 -14 -31 -56 -279 -17 -96 -29 -176 -27 -177 2 -2 154 50 337 115 600 213
1263 449 1349 480 47 17 86 30 87 28 6 -6 -52 -247 -61 -251 -24 -10 -1111
-430 -1430 -553 l-350 -134 -140 -137 c-77 -76 -321 -314 -542 -531 l-403
-393 -412 403 c-227 222 -472 461 -543 531 l-131 128 -869 336 c-479 185 -881
341 -895 347 -22 11 -28 27 -52 132 -15 65 -26 120 -25 121 1 1 121 -40 267
-92 146 -52 384 -137 530 -189 146 -51 366 -130 490 -174 124 -44 283 -100
354 -126 71 -25 130 -44 132 -43 5 6 -77 453 -84 459 -4 3 -101 40 -217 82
-232 84 -879 320 -1304 476 -151 56 -278 104 -281 108 -6 7 -61 248 -60 265 0
3 403 -128 895 -292 847 -282 895 -297 895 -276 0 13 -5 47 -10 77 -11 57
-100 653 -100 668 0 5 -107 47 -237 94 -226 82 -348 125 -1033 372 -162 58
-391 141 -507 183 l-212 76 -53 81 c-132 203 -892 1361 -896 1365 -3 3 -2 -11
2 -30z m2694 -4666 c708 -283 1292 -519 1298 -522 7 -5 -72 -176 -232 -501
-135 -272 -246 -497 -249 -499 -2 -3 -26 15 -52 38 -45 41 -791 763 -1653
1599 -212 206 -392 380 -400 388 -8 7 -11 13 -6 13 4 0 586 -232 1294 -516z
m4581 480 c-13 -14 -222 -218 -464 -453 -241 -234 -618 -599 -835 -811 -490
-476 -766 -740 -773 -740 -10 0 -498 995 -490 998 4 1 584 234 1288 517 704
283 1284 514 1289 515 5 0 -1 -12 -15 -26z"/>
<path d="M2830 8882 c0 -6 25 -153 56 -325 30 -171 75 -422 99 -557 24 -135
62 -348 85 -475 23 -126 63 -354 90 -505 186 -1047 321 -1799 327 -1821 7 -23
355 -365 740 -726 l129 -122 190 182 c105 100 298 285 429 411 230 219 241
231 252 280 7 28 51 269 98 536 48 267 109 611 136 765 28 154 72 404 99 555
27 151 65 365 85 475 19 110 60 340 91 510 30 171 75 422 100 559 24 137 43
253 42 258 -3 9 -211 -275 -922 -1259 l-240 -333 -361 0 -361 0 -566 783
c-657 906 -597 825 -598 809z m1870 -2264 c0 -11 -287 -1096 -327 -1238 -13
-46 -17 -52 -25 -35 -11 26 -338 1256 -338 1272 0 10 75 13 345 13 261 0 345
-3 345 -12z"/>
<path d="M650 4750 c0 -6 13 -104 30 -218 16 -114 50 -355 75 -537 25 -181 66
-472 90 -645 61 -437 144 -1030 211 -1510 31 -223 61 -410 67 -416 10 -9 222
-109 721 -339 43 -20 239 -111 435 -202 196 -91 383 -178 416 -193 92 -42 888
-412 1088 -505 97 -46 177 -80 177 -77 0 4 -141 205 -313 447 -322 453 -674
948 -1617 2275 -299 421 -663 934 -810 1140 -147 206 -333 468 -414 583 -81
114 -149 207 -152 207 -2 0 -4 -5 -4 -10z"/>
<path d="M7549 4063 c-272 -384 -617 -869 -765 -1078 -298 -419 -872 -1227
-1547 -2180 -242 -341 -451 -635 -465 -653 -14 -18 -23 -35 -20 -37 7 -7 39 7
1838 845 234 109 456 212 494 229 85 39 500 233 503 235 1 1 38 259 114 806
16 118 36 260 44 315 8 55 33 233 55 395 23 162 61 439 86 615 25 176 58 415
74 530 16 116 43 310 60 433 17 122 30 227 28 233 -2 6 -226 -304 -499 -688z"/>
</g>
</svg>
