{
	"asset":{
		"generator":"Khronos glTF Blender I/O v4.2.69",
		"version":"2.0"
	},
	"scene":0,
	"scenes":[
		{
			"name":"Scene",
			"nodes":[
				0
			]
		}
	],
	"nodes":[
		{
			"mesh":0,
			"name":"Asset 1",
			"rotation":[
				0.7071068286895752,
				0,
				0,
				0.7071068286895752
			],
			"scale":[
				0.06548047065734863,
				0.06548047065734863,
				0.06548047065734863
			],
			"translation":[
				0,
				0.5713642239570618,
				0
			]
		}
	],
	"animations":[
		{
			"channels":[
				{
					"sampler":0,
					"target":{
						"node":0,
						"path":"translation"
					}
				},
				{
					"sampler":1,
					"target":{
						"node":0,
						"path":"rotation"
					}
				},
				{
					"sampler":2,
					"target":{
						"node":0,
						"path":"scale"
					}
				}
			],
			"name":"Asset 1Action.003",
			"samplers":[
				{
					"input":4,
					"interpolation":"STEP",
					"output":5
				},
				{
					"input":6,
					"interpolation":"LINEAR",
					"output":7
				},
				{
					"input":4,
					"interpolation":"STEP",
					"output":8
				}
			]
		}
	],
	"materials":[
		{
			"doubleSided":true,
			"name":"Material.001",
			"pbrMetallicRoughness":{
				"baseColorFactor":[
					0,
					0,
					0,
					1
				],
				"metallicFactor":0,
				"roughnessFactor":0.7086614370346069
			}
		}
	],
	"meshes":[
		{
			"name":"Asset 1",
			"primitives":[
				{
					"attributes":{
						"POSITION":0,
						"NORMAL":1,
						"TEXCOORD_0":2
					},
					"indices":3,
					"material":0
				}
			]
		}
	],
	"accessors":[
		{
			"bufferView":0,
			"componentType":5126,
			"count":2735,
			"max":[
				8.66409969329834,
				1.1648999452590942,
				7.796510219573975
			],
			"min":[
				-8.66409969329834,
				-1.1648999452590942,
				-7.796510219573975
			],
			"type":"VEC3"
		},
		{
			"bufferView":1,
			"componentType":5126,
			"count":2735,
			"type":"VEC3"
		},
		{
			"bufferView":2,
			"componentType":5126,
			"count":2735,
			"type":"VEC2"
		},
		{
			"bufferView":3,
			"componentType":5123,
			"count":7452,
			"type":"SCALAR"
		},
		{
			"bufferView":4,
			"componentType":5126,
			"count":2,
			"max":[
				3
			],
			"min":[
				0.03333333333333333
			],
			"type":"SCALAR"
		},
		{
			"bufferView":5,
			"componentType":5126,
			"count":2,
			"type":"VEC3"
		},
		{
			"bufferView":6,
			"componentType":5126,
			"count":90,
			"max":[
				3
			],
			"min":[
				0.03333333333333333
			],
			"type":"SCALAR"
		},
		{
			"bufferView":7,
			"componentType":5126,
			"count":90,
			"type":"VEC4"
		},
		{
			"bufferView":8,
			"componentType":5126,
			"count":2,
			"type":"VEC3"
		}
	],
	"bufferViews":[
		{
			"buffer":0,
			"byteLength":32820,
			"byteOffset":0,
			"target":34962
		},
		{
			"buffer":0,
			"byteLength":32820,
			"byteOffset":32820,
			"target":34962
		},
		{
			"buffer":0,
			"byteLength":21880,
			"byteOffset":65640,
			"target":34962
		},
		{
			"buffer":0,
			"byteLength":14904,
			"byteOffset":87520,
			"target":34963
		},
		{
			"buffer":0,
			"byteLength":8,
			"byteOffset":102424
		},
		{
			"buffer":0,
			"byteLength":24,
			"byteOffset":102432
		},
		{
			"buffer":0,
			"byteLength":360,
			"byteOffset":102456
		},
		{
			"buffer":0,
			"byteLength":1440,
			"byteOffset":102816
		},
		{
			"buffer":0,
			"byteLength":24,
			"byteOffset":104256
		}
	],
	"buffers":[
		{
			"byteLength":104280,
			"uri":"scene.bin"
		}
	]
}
